<?xml version="1.0" standalone="no"?>
<!DOCTYPE svg PUBLIC "-//W3C//DTD SVG 20010904//EN"
 "http://www.w3.org/TR/2001/REC-SVG-20010904/DTD/svg10.dtd">
<svg version="1.0" xmlns="http://www.w3.org/2000/svg"
 width="568.000000pt" height="440.000000pt" viewBox="0 0 568.000000 440.000000"
 preserveAspectRatio="xMidYMid meet">

<g transform="translate(0.000000,440.000000) scale(0.100000,-0.100000)"

   fill="currentColor" stroke="none">
    <!--fill="#000000"-->
<path  d="M2654 3523 c4 -76 11 -142 15 -146 5 -4 20 -5 34 -2 21 6 26 14 29
43 l3 37 24 -37 c18 -30 29 -38 51 -38 42 0 45 16 14 61 -27 39 -27 41 -11 69
23 39 21 92 -4 124 -19 24 -27 26 -91 26 l-71 0 7 -137z m93 20 c-16 -16 -17
-15 -17 17 0 32 1 33 17 17 16 -16 16 -18 0 -34z"/>
<path d="M2962 3533 c-18 -71 -32 -134 -32 -141 0 -9 12 -12 38 -10 30 2 38 7
40 26 5 33 40 29 44 -5 3 -25 7 -28 38 -28 29 0 35 3 33 20 -1 11 -7 72 -13
135 -6 68 -16 117 -23 122 -7 4 -30 8 -52 8 l-40 0 -33 -127z"/>
<path d="M2415 3616 l-40 -12 4 -139 c2 -77 4 -141 6 -143 1 -1 16 1 33 4 27
6 32 11 32 35 0 23 5 29 21 29 13 0 23 -8 26 -21 5 -17 11 -20 37 -15 47 10
50 19 23 72 -13 27 -30 67 -37 89 -17 52 -48 115 -58 114 -4 0 -25 -6 -47 -13z"/>
<path d="M3284 3592 c-39 -34 -54 -77 -54 -156 0 -72 5 -81 52 -101 44 -18 77
-9 101 28 20 31 39 109 28 120 -4 4 -25 8 -47 10 l-39 2 0 -44 c0 -26 -5 -46
-12 -48 -19 -7 -16 72 4 114 15 32 19 35 49 30 27 -5 36 -1 49 20 19 29 20 27
-24 42 -51 17 -73 13 -107 -17z"/>
<path d="M2132 3540 c-63 -29 -75 -72 -46 -170 21 -71 60 -110 111 -110 85 1
113 71 66 164 -13 25 -19 27 -46 22 -17 -4 -35 -10 -40 -15 -14 -14 1 -61 18
-61 8 0 15 -9 15 -20 0 -51 -52 12 -65 77 -7 39 7 63 37 63 16 0 19 6 16 32
-4 40 -13 42 -66 18z"/>
<path d="M3549 3504 c-18 -43 -60 -157 -76 -205 -3 -11 4 -20 24 -27 15 -5 45
-17 65 -26 l37 -16 16 29 c20 39 20 39 -20 55 -25 11 -33 19 -29 31 4 9 12 14
18 12 49 -19 54 -18 64 12 11 31 5 41 -30 54 -11 4 -15 12 -12 22 4 10 13 14
23 9 42 -17 50 -16 65 15 18 34 14 40 -54 59 -19 5 -43 13 -52 17 -14 6 -22
-3 -39 -41z"/>
<path d="M2868 3265 c-2 -2 -48 -6 -103 -9 -55 -3 -131 -10 -170 -16 -38 -6
-79 -11 -90 -12 -11 0 -58 -12 -105 -25 -47 -14 -115 -33 -152 -43 -37 -10
-77 -25 -90 -33 -13 -8 -45 -23 -73 -33 -27 -10 -70 -31 -95 -48 -25 -17 -52
-35 -61 -41 -69 -42 -199 -144 -199 -156 0 -4 -11 -14 -24 -21 -24 -12 -44
-37 -129 -151 -44 -61 -117 -206 -127 -257 -4 -19 -15 -61 -23 -93 -12 -43
-15 -90 -12 -180 3 -104 8 -137 34 -216 17 -52 31 -99 31 -106 0 -6 9 -20 20
-30 10 -9 24 -34 31 -54 6 -20 17 -40 23 -46 7 -5 25 -29 39 -52 15 -24 36
-49 47 -55 11 -7 20 -18 20 -24 0 -6 15 -23 32 -37 18 -14 60 -51 93 -81 33
-31 64 -56 68 -56 5 0 27 -15 51 -32 38 -29 165 -96 281 -149 66 -29 178 -61
320 -90 151 -30 440 -44 545 -26 19 4 63 9 97 11 89 7 130 15 206 42 38 13 77
24 87 24 21 0 165 57 240 95 25 12 62 31 83 41 20 10 37 21 37 25 0 3 10 10
23 16 26 12 175 131 221 177 36 36 125 141 144 171 12 19 73 145 93 190 12 30
38 143 46 205 30 241 -81 530 -279 727 -85 85 -198 174 -265 209 -27 13 -55
29 -63 34 -78 49 -314 133 -451 160 -128 25 -159 30 -259 35 -47 3 -97 7 -111
10 -15 2 -28 2 -31 0z m217 -219 c96 -13 119 -17 177 -31 101 -25 168 -46 174
-56 3 -5 15 -9 26 -9 11 0 52 -16 89 -35 38 -19 75 -35 83 -35 7 0 19 -7 26
-15 7 -8 37 -29 67 -46 30 -17 65 -41 78 -53 13 -12 44 -40 69 -61 48 -41 136
-146 136 -163 0 -5 7 -15 14 -22 19 -15 47 -76 77 -165 19 -59 23 -89 22 -193
0 -67 -5 -128 -11 -135 -6 -6 -13 -30 -17 -52 -4 -22 -18 -57 -31 -77 -13 -21
-24 -40 -24 -43 0 -19 -75 -121 -131 -177 -70 -71 -79 -77 -79 -53 0 19 -99
115 -118 115 -10 0 -12 -7 -8 -25 15 -58 -83 -234 -142 -256 -13 -5 -38 -20
-55 -33 -18 -13 -56 -31 -84 -41 -29 -9 -55 -21 -58 -26 -8 -12 -35 -12 -35 0
0 5 21 21 48 37 26 15 55 34 64 43 9 9 35 30 57 46 77 59 138 176 121 230 -12
38 -63 95 -84 95 -9 0 -16 4 -16 8 0 4 -16 14 -35 21 -34 12 -35 14 -35 66 0
54 0 55 25 43 55 -25 77 52 28 98 -15 14 -32 40 -38 57 -5 18 -18 33 -28 35
-23 5 -47 -15 -47 -39 0 -10 -16 -35 -35 -56 -36 -39 -38 -62 -9 -93 11 -11
17 -11 26 -2 23 23 38 13 38 -26 0 -21 -3 -41 -6 -44 -9 -10 -101 24 -188 69
-72 37 -84 52 -70 90 7 21 29 37 94 70 47 23 105 47 130 53 25 7 59 18 75 26
17 7 66 25 110 40 44 14 88 34 97 44 10 10 28 22 40 26 46 14 117 84 128 125
15 53 8 68 -53 132 -62 65 -172 125 -310 171 -27 9 -61 22 -75 30 -15 7 -40
16 -57 20 l-30 7 32 -20 c17 -11 47 -24 65 -29 44 -12 131 -70 180 -119 44
-45 49 -84 15 -125 -42 -51 -252 -133 -259 -100 -5 27 -6 72 -2 100 4 28 7 31
24 22 28 -15 47 -3 53 33 5 27 0 37 -29 65 -21 19 -34 42 -34 57 0 15 -8 29
-22 36 -18 10 -24 8 -39 -12 -10 -13 -16 -30 -14 -37 3 -7 -9 -25 -25 -39 -48
-40 -36 -116 18 -111 27 3 27 3 29 -68 l2 -71 -37 -12 c-51 -16 -180 -40 -265
-51 -40 -5 -115 -18 -167 -30 -52 -11 -133 -25 -180 -31 -47 -6 -104 -17 -128
-25 -23 -8 -55 -14 -70 -14 -15 0 -40 -7 -56 -15 -15 -8 -38 -15 -51 -15 -12
0 -28 -7 -35 -15 -7 -8 -20 -15 -30 -15 -24 0 -47 -46 -34 -68 12 -19 89 -66
125 -77 98 -30 287 -132 332 -179 53 -57 52 -102 -3 -156 -43 -42 -108 -79
-175 -99 -22 -7 -47 -15 -55 -18 -24 -10 -148 -42 -245 -63 -81 -18 -92 -19
-121 -5 -17 8 -37 21 -44 30 -7 8 -16 15 -21 15 -32 0 -289 236 -289 265 0 7
-13 31 -30 53 -16 23 -30 48 -30 55 0 8 -3 17 -7 20 -18 19 -44 122 -54 218
-10 92 -10 114 3 151 9 24 24 70 33 103 19 64 67 160 94 186 9 8 27 30 41 47
41 52 108 122 118 122 5 0 20 10 33 23 65 63 285 187 330 187 10 0 20 4 23 9
3 5 30 15 58 21 29 7 58 16 63 20 6 4 30 10 55 14 25 3 99 15 165 25 113 18
350 21 450 7z"/>
<path d="M2641 2899 l-121 -120 0 -57 c0 -31 4 -62 8 -68 7 -12 35 -46 131
-160 l53 -64 29 21 29 20 0 275 c0 151 -2 274 -4 274 -2 0 -58 -54 -125 -121z
m-21 -164 c0 -52 -1 -55 -25 -55 -24 0 -25 3 -25 55 0 52 1 55 25 55 24 0 25
-3 25 -55z m100 -50 c0 -52 -1 -55 -25 -55 -24 0 -25 3 -25 55 0 52 1 55 25
55 24 0 25 -3 25 -55z"/>
<path d="M2850 2739 l0 -201 54 46 c29 25 56 46 59 46 4 0 36 -25 72 -55 l65
-56 0 91 0 90 -120 120 c-66 66 -123 120 -125 120 -3 0 -5 -90 -5 -201z m100
-4 c0 -52 -1 -55 -25 -55 -23 0 -25 3 -25 48 0 53 4 62 32 62 15 0 18 -8 18
-55z m100 -61 c0 -52 -1 -55 -22 -52 -20 3 -23 9 -24 48 -1 54 2 60 27 60 16
0 19 -7 19 -56z"/>
<path d="M1994 2755 c-9 -14 -14 -34 -11 -45 4 -15 -2 -24 -24 -35 -41 -22
-60 -62 -49 -109 12 -56 23 -63 65 -43 l35 17 0 -124 0 -123 -66 -84 c-97
-124 -90 -123 -92 -18 -2 83 -1 91 15 84 62 -25 83 -12 83 51 0 37 -5 47 -35
71 -25 20 -35 36 -35 56 0 27 -30 67 -50 67 -6 0 -22 -11 -36 -26 -19 -18 -24
-32 -20 -48 4 -18 1 -25 -14 -29 -23 -6 -60 -64 -60 -95 0 -52 46 -82 78 -50
6 6 14 9 17 6 10 -10 8 -250 -1 -257 -16 -11 -64 -80 -64 -91 0 -6 12 -32 27
-58 73 -127 189 -240 332 -323 43 -25 45 -25 115 -12 39 7 96 20 126 29 30 9
79 22 107 30 66 17 176 70 209 100 36 34 30 58 -24 101 -52 42 -97 65 -217
116 -44 19 -98 42 -120 51 -22 9 -56 31 -75 49 -31 28 -35 37 -35 80 0 42 4
52 30 73 17 14 46 32 65 41 61 27 259 73 465 108 110 19 236 41 280 49 44 8
97 17 118 21 20 3 37 9 37 13 0 7 -134 119 -191 160 -17 13 -29 5 -125 -80
-58 -51 -114 -99 -124 -106 -16 -11 -27 -1 -111 99 -157 187 -230 269 -238
269 -4 0 -32 -30 -61 -67 -30 -38 -60 -75 -67 -83 -8 -8 -37 -44 -65 -80 -28
-36 -56 -69 -63 -75 -6 -5 -20 -23 -30 -40 -18 -29 -18 -29 -28 -8 -5 12 -6
50 -2 87 l7 66 28 -16 c37 -22 57 -13 66 30 9 53 -2 83 -41 109 -27 17 -35 29
-35 53 0 59 -65 86 -96 39z"/>
<path d="M3678 2138 l-3 -101 -40 -24 c-22 -13 -46 -26 -52 -29 -9 -4 -13 -29
-13 -70 l0 -63 93 -45 c51 -24 116 -65 144 -90 l50 -45 32 33 33 34 1 221 c1
121 0 221 -2 221 -2 0 -28 -13 -57 -30 l-53 -29 -3 32 c-3 28 -10 35 -58 59
-30 15 -58 27 -62 27 -4 1 -9 -45 -10 -101z m70 -200 c-3 -46 -6 -53 -25 -56
-22 -3 -23 0 -23 52 0 53 1 56 26 56 24 0 25 -2 22 -52z m102 -53 c0 -52 -1
-55 -25 -55 -24 0 -25 3 -25 55 0 52 1 55 25 55 24 0 25 -3 25 -55z"/>
<path d="M1540 1345 c-41 -47 -77 -90 -79 -96 -4 -13 69 -78 90 -79 9 0 22 7
29 15 11 13 9 20 -10 40 l-23 24 49 57 c71 82 71 80 50 103 -11 12 -22 21 -25
21 -3 -1 -40 -39 -81 -85z"/>
<path d="M4058 1374 c-16 -16 -14 -21 25 -67 23 -27 61 -70 84 -96 l43 -46 47
47 48 48 -21 20 c-20 21 -20 21 -45 1 l-25 -20 -58 65 c-31 35 -63 64 -69 64
-7 0 -20 -7 -29 -16z"/>
<path d="M1743 1258 c-92 -66 -112 -189 -35 -216 53 -18 109 23 156 115 20 40
13 76 -21 103 -33 26 -61 25 -100 -2z m67 -61 c0 -23 -59 -97 -76 -97 -13 0
-15 6 -9 28 12 49 85 108 85 69z"/>
<path d="M3905 1255 l-29 -24 36 -74 c20 -40 40 -85 43 -100 10 -39 29 -51 54
-35 17 10 20 19 15 45 -5 25 -3 33 9 33 8 0 20 -7 27 -15 13 -16 47 -5 56 19
6 14 -149 176 -168 176 -7 -1 -26 -12 -43 -25z"/>
<path d="M3761 1171 c-13 -8 -13 -14 -2 -38 21 -44 52 -138 43 -128 -5 6 -26
35 -47 65 -21 30 -40 57 -41 59 -6 8 -54 -10 -54 -20 0 -12 72 -114 119 -167
28 -33 29 -33 59 -18 17 9 33 20 37 25 3 6 -11 60 -30 120 -37 113 -47 125
-84 102z"/>
<path d="M1954 1118 c-41 -36 -73 -98 -74 -141 0 -37 49 -87 84 -87 14 0 26 4
26 9 0 5 3 16 6 25 4 11 -2 19 -20 26 -34 13 -34 44 0 94 22 32 30 37 53 33
27 -6 61 12 61 31 0 14 -52 42 -79 42 -11 0 -37 -15 -57 -32z"/>
<path d="M3545 1066 c-16 -12 -18 -18 -8 -37 6 -13 26 -62 44 -107 18 -46 38
-86 45 -89 7 -2 22 0 33 6 20 11 20 12 1 64 -37 105 -69 172 -82 175 -7 1 -22
-4 -33 -12z"/>
<path d="M2162 1016 c-13 -24 -39 -68 -58 -96 -19 -28 -34 -58 -34 -66 0 -22
51 -30 65 -10 18 24 35 20 35 -9 0 -18 7 -28 26 -35 34 -13 44 -6 44 33 1 18
7 59 15 92 21 88 20 110 -10 123 -44 20 -59 14 -83 -32z"/>
<path d="M3387 1016 c-27 -7 -53 -18 -59 -24 -16 -16 1 -52 26 -52 19 0 26
-12 50 -85 27 -83 35 -92 70 -79 21 8 20 18 -8 105 l-25 74 21 16 c14 11 18
22 13 37 -7 25 -20 26 -88 8z"/>
<path d="M2356 888 c-16 -62 -29 -117 -30 -122 -1 -10 114 -37 125 -30 4 2 9
13 12 25 5 17 -1 24 -24 32 -34 13 -34 11 -9 107 18 70 18 76 3 88 -38 28 -47
16 -77 -100z"/>
<path d="M3155 945 c-37 -37 -32 -63 25 -115 28 -25 50 -49 50 -53 0 -4 -16
-7 -35 -7 -32 0 -35 -2 -35 -30 0 -29 2 -30 45 -30 35 0 52 6 70 25 39 38 32
67 -26 119 l-52 47 32 12 c22 8 31 18 31 34 0 20 -5 23 -40 23 -30 0 -47 -7
-65 -25z"/>
<path d="M2723 936 c-3 -5 -8 -62 -11 -126 l-5 -117 32 -5 c39 -6 41 -3 41 44
0 34 3 38 25 38 21 0 25 5 25 29 0 23 -5 30 -22 33 -15 2 -23 10 -23 23 0 15
8 21 33 23 29 3 33 6 30 30 -3 25 -7 27 -61 32 -32 3 -61 1 -64 -4z"/>
<path d="M2962 943 c-18 -3 -35 -10 -38 -17 -6 -15 11 -234 18 -242 3 -3 32
-2 64 3 54 7 59 10 59 33 0 21 -6 26 -35 30 -43 6 -48 33 -7 38 23 3 27 8 27
33 0 26 -3 29 -30 29 -20 0 -30 5 -30 15 0 10 10 15 30 15 28 0 30 3 30 35 0
38 -1 38 -88 28z"/>
</g>
</svg>
